<?xml version="1.0" encoding="UTF-8" standalone="no"?>
<!-- Created with Inkscape (http://www.inkscape.org/) -->

<svg
   width="512"
   height="512"
   viewBox="0 0 135.46666 135.46667"
   version="1.1"
   id="svg5"
   inkscape:version="1.1 (c68e22c387, 2021-05-23)"
   sodipodi:docname="AA logo.svg"
   xmlns:inkscape="http://www.inkscape.org/namespaces/inkscape"
   xmlns:sodipodi="http://sodipodi.sourceforge.net/DTD/sodipodi-0.dtd"
   xmlns="http://www.w3.org/2000/svg"
   xmlns:svg="http://www.w3.org/2000/svg">
  <sodipodi:namedview
     id="namedview7"
     pagecolor="#ffffff"
     bordercolor="#666666"
     borderopacity="1.0"
     inkscape:pageshadow="2"
     inkscape:pageopacity="0.0"
     inkscape:pagecheckerboard="0"
     inkscape:document-units="mm"
     showgrid="false"
     units="px"
     inkscape:zoom="1.4142136"
     inkscape:cx="155.91704"
     inkscape:cy="281.78205"
     inkscape:window-width="2496"
     inkscape:window-height="1417"
     inkscape:window-x="56"
     inkscape:window-y="-8"
     inkscape:window-maximized="1"
     inkscape:current-layer="g964" />
  <defs
     id="defs2" />
  <g
     inkscape:label="Layer 1"
     inkscape:groupmode="layer"
     id="layer1">
    <g
       id="g964"
       transform="translate(156.49485,-71.783505)">
      <path
         style="fill:#d41618;stroke-width:0.167257"
         d="m -35.62648,197.78005 c -4.23465,-0.26491 -4.506039,-0.45347 -10.47426,-7.27739 -1.690476,-1.93284 -4.052047,-4.79014 -5.247938,-6.34956 -1.19589,-1.55941 -2.891477,-3.62838 -3.767972,-4.59772 -4.276111,-4.72904 -5.499146,-6.30239 -6.474474,-8.32897 -0.521285,-1.08315 -0.577058,-1.32977 -0.516352,-2.28314 0.05608,-0.8808 0.169835,-1.21762 0.646592,-1.91461 0.662147,-0.96803 20.648753,-24.99817 21.272654,-25.57637 0.65332,-0.60548 1.344344,-0.70685 4.818206,-0.70685 4.698399,0 6.015699,0.41072 6.015699,1.87565 0,1.20168 -0.83675,2.48116 -3.909385,5.97792 -1.094905,1.24603 -3.542127,4.13973 -5.438273,6.43045 -1.896145,2.29072 -4.822078,5.82304 -6.502073,7.84959 -1.759816,2.12284 -3.266337,4.10849 -3.554221,4.6846 -0.998935,1.99904 -0.569695,3.27776 2.166728,6.45475 0.634623,0.7368 1.667901,1.99139 2.296174,2.78798 0.62827,0.79659 2.756889,3.37662 4.73026,5.73341 8.10961,9.68526 9.87627,12.15412 9.87627,13.80174 0,0.53823 -0.0995,0.80484 -0.4089,1.09549 -0.35215,0.33083 -0.6133,0.39073 -1.88164,0.4316 -0.810013,0.0261 -2.451204,-0.0137 -3.647095,-0.0886 z"
         id="path968"
         sodipodi:nodetypes="cssssssssssssssssssscc" />
      <path
         style="fill:#010101;stroke-width:0.167257"
         d="m -100.43035,165.67721 c -0.11558,-0.15452 -0.0364,-9.80895 -0.0364,-9.80895 0.0669,-15.28948 0.50331,6.88061 0.43646,4.55086 -0.10986,-3.83005 -0.15168,-4.26609 -0.43646,-4.55086 -0.30396,-0.30396 -0.3329,-0.30453 -0.82882,-0.0163 -0.54035,0.31404 -2.25716,2.30981 -5.58039,6.48717 -1.09774,1.37987 -2.3422,2.88519 -2.76547,3.34514 -0.42327,0.45996 -1.2354,1.48886 -1.80474,2.28644 -0.56935,0.79758 -1.09968,1.47497 -1.17851,1.50532 -0.0788,0.0303 -0.84608,0.88309 -1.70498,1.895 -0.85891,1.0119 -2.28245,2.63012 -3.16344,3.59603 -0.881,0.96591 -2.32678,2.62843 -3.21285,3.69449 -1.98762,2.39135 -2.9216,3.22635 -4.03679,3.60902 -2.21284,0.75931 -7.45971,-0.17011 -8.38033,-1.48448 -0.14474,-0.20667 -0.26192,-0.7151 -0.26192,-1.13651 0,-1.07388 1.03318,-2.76838 3.7729,-6.18784 2.22227,-2.77364 3.12387,-3.81793 6.14238,-7.11454 0.89982,-0.98272 2.30719,-2.77579 3.1275,-3.9846 0.82031,-1.2088 2.36671,-3.25154 3.43645,-4.53943 1.06974,-1.28788 2.63537,-3.23709 3.47917,-4.33157 0.8438,-1.09448 1.98577,-2.52612 2.53772,-3.18142 0.55195,-0.65529 2.08981,-2.54464 3.41746,-4.19855 1.32765,-1.65391 3.02695,-3.72213 3.77623,-4.59605 0.74927,-0.87392 1.94279,-2.36074 2.65226,-3.30404 0.70948,-0.9433 2.100173,-2.67441 3.090431,-3.84692 0.990257,-1.17251 2.369867,-2.84916 3.065797,-3.72588 1.518851,-1.91341 2.934631,-3.24343 3.733085,-3.50695 0.868705,-0.28669 1.659708,0.0265 2.225224,0.8812 0.203061,13.85925 0.115462,23.38461 0.129309,37.66479 0.102754,0.71007 -3.900725,1.13499 -5.801402,1.14969 -5.148237,0.0397 -5.705124,-0.15616 -5.829904,-1.15026 -0.003,-0.14834 0.003,0.14834 -8e-5,0 z"
         id="path966"
         sodipodi:nodetypes="cccssssscsssssssssssssssssscccccc" />
      <path
         style="fill:#d41618;fill-opacity:1;stroke-width:0.163711"
         d="m -74.576836,128.29325 c 0.113131,0.15125 0.03563,9.60101 0.03563,9.60101 -0.06549,14.96531 -0.492639,-6.73474 -0.427206,-4.45439 0.107531,3.74885 0.148464,4.17564 0.427206,4.45439 0.297516,0.2975 0.325843,0.29807 0.811249,0.016 0.528893,-0.30739 2.209305,-2.26084 5.462079,-6.34963 1.074466,-1.35062 2.292542,-2.82403 2.70684,-3.27423 0.414295,-0.45021 1.209208,-1.4573 1.766476,-2.23796 0.55728,-0.78068 1.076366,-1.4437 1.153524,-1.47342 0.07713,-0.0297 0.828143,-0.86436 1.668833,-1.85481 0.8407,-0.99045 2.234059,-2.57436 3.096372,-3.5198 0.862322,-0.94543 2.277449,-2.5727 3.144734,-3.61615 1.94548,-2.34065 2.859658,-3.15796 3.951205,-3.53252 2.165925,-0.7432 7.301554,0.16651 8.202656,1.45302 0.141672,0.20228 0.256368,0.69993 0.256368,1.11241 0,1.05111 -1.011277,2.70969 -3.69291,6.05665 -2.175156,2.71483 -3.057641,3.73699 -6.012155,6.9637 -0.880743,0.9619 -2.258274,2.71694 -3.061193,3.90013 -0.802918,1.18318 -2.316533,3.1826 -3.363593,4.44319 -1.047061,1.26057 -2.579497,3.16846 -3.405407,4.23973 -0.82591,1.07127 -1.94367,2.47257 -2.483919,3.11398 -0.540247,0.64138 -2.045503,2.49068 -3.345005,4.10952 -1.299502,1.61885 -2.962776,3.64323 -3.69617,4.49861 -0.733384,0.8554 -1.901601,2.31069 -2.596029,3.23399 -0.694438,0.92331 -2.055646,2.61772 -3.02491,3.76537 -0.969263,1.14765 -2.319623,2.78875 -3.000799,3.64689 -1.486649,1.87283 -2.872413,3.17465 -3.653939,3.43259 -0.850287,0.28062 -1.62452,-0.026 -2.178047,-0.86252 -0.198756,-13.56542 -0.113014,-22.88882 -0.126568,-36.86624 -0.100575,-0.69502 3.818027,-1.11094 5.678406,-1.12532 5.03909,-0.0388 5.584169,0.15284 5.706304,1.12587 0.0029,0.1452 -0.0029,-0.14519 7.8e-5,0 z"
         id="path966-3"
         sodipodi:nodetypes="cccssssscsssssssssssssssssscccccc" />
    </g>
  </g>
</svg>
