<?xml version="1.0" encoding="UTF-8" standalone="no"?>
<!-- Created with Inkscape (http://www.inkscape.org/) -->

<svg
   width="900mm"
   height="400mm"
   viewBox="0 0 900 400"
   version="1.1"
   id="svg5"
   inkscape:version="1.1 (c68e22c387, 2021-05-23)"
   sodipodi:docname="AK logo.svg"
   xmlns:inkscape="http://www.inkscape.org/namespaces/inkscape"
   xmlns:sodipodi="http://sodipodi.sourceforge.net/DTD/sodipodi-0.dtd"
   xmlns="http://www.w3.org/2000/svg"
   xmlns:svg="http://www.w3.org/2000/svg">
  <sodipodi:namedview
     id="namedview7"
     pagecolor="#ffffff"
     bordercolor="#666666"
     borderopacity="1.0"
     inkscape:pageshadow="2"
     inkscape:pageopacity="0.0"
     inkscape:pagecheckerboard="0"
     inkscape:document-units="mm"
     showgrid="false"
     width="900mm"
     showguides="true"
     inkscape:guide-bbox="true"
     inkscape:zoom="1.0998546"
     inkscape:cx="1615.2135"
     inkscape:cy="673.27081"
     inkscape:window-width="1921"
     inkscape:window-height="1081"
     inkscape:window-x="4358"
     inkscape:window-y="179"
     inkscape:window-maximized="0"
     inkscape:current-layer="g2166" />
  <defs
     id="defs2" />
  <g
     inkscape:label="Layer 1"
     inkscape:groupmode="layer"
     id="layer1">
    <g
       id="g2166"
       transform="translate(72.168626,35.362628)">
      <path
         style="fill:#9f9f9f;stroke-width:0.219483;opacity:0"
         d="m 390.78123,203.13764 c -1.02217,-0.89812 -1.03116,-1.66327 -0.69012,-58.74679 0.0505,-8.45011 0.0134,-15.73301 -0.0823,-16.18423 -0.28366,-1.33699 -1.45386,-1.54658 -2.27125,-0.4068 -0.13776,0.19209 -1.64726,2.02831 -3.35444,4.08048 -1.70717,2.05217 -3.27351,3.95721 -3.48074,4.23342 -0.20723,0.27622 -0.58782,0.72067 -0.84576,0.98768 -0.25795,0.26701 -0.85055,0.99161 -1.3169,1.61022 -1.20437,1.59759 -3.19985,4.07903 -7.04832,8.76479 -1.84092,2.24144 -3.34793,4.14318 -3.34893,4.2261 -10e-4,0.0829 -0.47014,0.66223 -1.04254,1.28735 -0.57241,0.62512 -1.28766,1.55217 -1.58945,2.06011 -0.58251,0.98041 -2.70552,3.66316 -3.19769,4.04078 -0.50411,0.38677 -6.6883,7.87529 -7.02501,8.50667 -1.29878,2.43545 -0.6734,3.02168 3.2235,3.02168 2.99095,0 2.6673,0.16794 4.69137,-2.43427 0.60179,-0.77368 1.89016,-2.24621 2.86306,-3.2723 0.9729,-1.02608 2.06081,-2.26067 2.41757,-2.74354 0.35677,-0.48286 0.76381,-0.9767 0.90453,-1.09741 0.2675,-0.22947 5.2906,-6.34367 6.70867,-8.16589 0.45044,-0.57883 1.14181,-1.41695 1.53638,-1.86251 0.39456,-0.44554 1.14127,-1.34581 1.65935,-2.00058 1.11139,-1.40464 2.30013,-2.15589 2.73048,-1.72559 0.35606,0.35603 0.52698,53.63565 0.17502,54.56136 -0.32653,0.85885 -1.16862,1.09034 -2.51291,0.69081 -1.8921,-0.56234 -2.84827,-0.78095 -3.42139,-0.78223 -0.30275,-6.6e-4 -1.01429,-0.24814 -1.5812,-0.54993 -0.56691,-0.30179 -1.27238,-0.54871 -1.56771,-0.54871 -0.29533,0 -1.0653,-0.24595 -1.71105,-0.54656 -0.64574,-0.30061 -1.28363,-0.54753 -1.41752,-0.54871 -0.23317,-0.002 -3.13255,-1.33018 -3.817,-1.74846 -0.18107,-0.11066 -0.67491,-0.36848 -1.09742,-0.57294 -1.70301,-0.82413 -2.53222,-1.26506 -3.06354,-1.62905 -0.30686,-0.21023 -1.13736,-0.76591 -1.84554,-1.23486 -5.62145,-3.7224 -12.8259,-10.61219 -14.48989,-13.85701 -0.20119,-0.39233 -0.44539,-0.71332 -0.54268,-0.71332 -0.21622,0 -1.46801,-1.90402 -1.76453,-2.68392 -0.11829,-0.31113 -0.32134,-0.63137 -0.45123,-0.71164 -0.12989,-0.0803 -0.43597,-0.50964 -0.68018,-0.95413 -0.24422,-0.44449 -0.68378,-1.20324 -0.97681,-1.6861 -0.29302,-0.48287 -0.68618,-1.22362 -0.87367,-1.64613 -0.18749,-0.4225 -0.52606,-1.16326 -0.75238,-1.64612 -0.98346,-2.0983 -2.61167,-6.97327 -2.79474,-8.36762 -0.0773,-0.58859 -0.31018,-1.41585 -0.51756,-1.83836 -0.21645,-0.44097 -0.43169,-1.56287 -0.50531,-2.63379 -0.0705,-1.02609 -0.29663,-2.31007 -0.50243,-2.85329 -0.60484,-1.5965 -0.52105,-12.01477 0.11386,-14.15597 0.25044,-0.84463 0.45535,-2.0313 0.45535,-2.63705 0,-0.65738 0.16582,-1.41075 0.41135,-1.86884 0.22623,-0.42211 0.48257,-1.38122 0.56963,-2.13136 0.0871,-0.75013 0.33871,-1.71774 0.55921,-2.15024 0.2205,-0.4325 0.47062,-1.20036 0.55582,-1.70635 0.0852,-0.506 0.34104,-1.15708 0.56852,-1.44684 0.22749,-0.28977 0.47398,-0.90441 0.54778,-1.36587 0.0738,-0.46147 0.36888,-1.15717 0.65576,-1.54602 0.28688,-0.38884 0.5216,-0.86645 0.5216,-1.06136 0,-0.19491 0.14821,-0.5461 0.32935,-0.78042 0.18114,-0.23433 0.52292,-0.82112 0.75952,-1.30398 0.23659,-0.48286 0.68207,-1.273 0.98995,-1.75587 0.30787,-0.48286 0.76009,-1.273 1.00492,-1.75586 0.24482,-0.48287 0.98389,-1.61869 1.64237,-2.52406 0.65847,-0.90537 1.43536,-1.99181 1.72642,-2.41432 0.29106,-0.4225 1.05712,-1.31582 1.70235,-1.98514 0.64524,-0.66933 1.53781,-1.62626 1.98351,-2.12652 0.44568,-0.50026 1.38954,-1.43414 2.09745,-2.0753 0.70792,-0.64115 1.77539,-1.61018 2.37217,-2.1534 0.59677,-0.54322 1.29399,-1.13583 1.54937,-1.3169 0.25537,-0.18108 0.84798,-0.59746 1.3169,-0.92529 0.46891,-0.32783 1.24765,-0.89186 1.73051,-1.25338 0.48286,-0.36152 1.18687,-0.79928 1.56446,-0.97279 0.37759,-0.17352 0.75472,-0.42583 0.83807,-0.56069 0.0833,-0.13486 0.46578,-0.394 0.84986,-0.57587 0.38407,-0.18187 1.42926,-0.723592 2.32264,-1.203832 0.89338,-0.480241 1.73467,-0.873166 1.86953,-0.873166 0.13486,0 0.60857,-0.246919 1.05269,-0.548708 0.44413,-0.30179 0.94618,-0.548709 1.11568,-0.548709 0.1695,0 0.74348,-0.231449 1.2755,-0.514331 0.53203,-0.282882 1.36157,-0.587542 1.84343,-0.677021 0.48186,-0.08948 1.02425,-0.294307 1.20533,-0.455173 0.18107,-0.160865 0.97121,-0.404078 1.75586,-0.540473 0.78466,-0.136394 2.01925,-0.433389 2.74355,-0.659988 0.72429,-0.226599 2.00827,-0.479251 2.85328,-0.561449 0.84501,-0.0822 1.83268,-0.311909 2.19483,-0.510469 0.99264,-0.54425 13.1737,-0.53919 14.50259,0.006 0.49205,0.201875 1.62788,0.431833 2.52406,0.511018 0.89619,0.07919 1.9836,0.277108 2.41647,0.439828 0.43288,0.162721 1.42055,0.410716 2.19484,0.5511 0.77428,0.140385 1.91115,0.493356 2.52638,0.784382 0.61523,0.291024 1.29494,0.529136 1.51048,0.529136 0.21553,0 0.69984,0.189242 1.07624,0.420538 0.37639,0.231296 1.04898,0.488127 1.49463,0.570737 0.44565,0.08261 1.13152,0.387204 1.52416,0.676878 0.39263,0.289674 0.81814,0.52731 0.94558,0.52808 0.12745,7.69e-4 0.8737,0.346957 1.65836,0.769304 0.78465,0.422347 1.84231,0.967751 2.35035,1.212008 0.50804,0.24426 0.98925,0.55014 1.06934,0.67974 0.0801,0.12959 0.45457,0.37759 0.83216,0.55111 0.37758,0.17351 1.08159,0.61127 1.56445,0.97279 0.83634,0.62617 2.0142,1.46275 3.06745,2.17867 1.72599,1.17319 8.59366,8.17329 9.90524,10.09623 0.28817,0.4225 0.74654,1.07583 1.01858,1.45184 1.04476,1.444 2.14076,3.17499 2.14076,3.38105 0,0.11838 0.19606,0.41129 0.4357,0.65093 0.49099,0.49099 0.66279,0.80401 2.5807,4.70207 0.75365,1.53176 1.43434,3.05182 1.51265,3.3779 0.0783,0.32609 0.31255,0.93857 0.52053,1.36107 0.20798,0.42251 0.44913,1.15867 0.53589,1.63592 0.0868,0.47725 0.33405,1.218 0.54954,1.64612 0.21549,0.42812 0.46307,1.26656 0.55017,1.86319 0.0871,0.59663 0.34853,1.82834 0.58096,2.73712 0.23243,0.90878 0.5186,2.98858 0.63594,4.62178 0.11734,1.63319 0.31075,3.73357 0.42979,4.6675 0.11905,0.93393 0.17185,1.82284 0.11733,1.97535 -0.0545,0.15251 -0.25303,2.15388 -0.44114,4.44748 -0.34313,4.18386 -0.45251,4.90354 -1.08308,7.12617 -0.18727,0.66006 -0.34048,1.59981 -0.34048,2.08834 0,0.48852 -0.18307,1.23244 -0.40681,1.65316 -0.22374,0.42072 -0.47822,1.15178 -0.56551,1.62459 -0.41459,2.24555 -2.44761,6.56351 -4.02093,8.5401 -0.27161,0.34123 -0.49636,0.78569 -0.49945,0.98768 -0.0248,1.6263 -11.63539,15.62134 -12.95976,15.62134 -0.0995,0 -0.75388,0.47262 -1.45426,1.05026 -1.73323,1.42948 -6.28059,4.43683 -6.70885,4.43683 -0.19096,0 -0.64065,0.24691 -0.9993,0.5487 -0.35866,0.30179 -0.7915,0.54871 -0.96188,0.54871 -0.17037,0 -0.64445,0.24692 -1.0535,0.54871 -0.40905,0.30179 -0.848,0.54908 -0.97544,0.54953 -0.12745,4.4e-4 -0.82432,0.29639 -1.54862,0.65763 -0.72429,0.36124 -1.45339,0.65717 -1.62022,0.65762 -0.16682,4.4e-4 -0.61127,0.18578 -0.98767,0.41183 -0.3764,0.22606 -1.11107,0.47526 -1.63261,0.55378 -0.52154,0.0785 -1.16353,0.28046 -1.42664,0.44876 -0.26312,0.1683 -1.33537,0.46415 -2.38279,0.65745 -1.04743,0.1933 -2.33141,0.5028 -2.85329,0.68777 -0.52188,0.18497 -1.93655,0.39452 -3.14371,0.46565 -1.48581,0.0876 -2.45789,0.26121 -3.00915,0.53755 -1.42053,0.71212 -2.95561,0.54834 -4.07443,-0.4347 z"
         id="path2174"
         inkscape:export-filename="C:\Users\Alekh\Projects\GitHub\afernandezfada\notion-icons\icons\AK-white.png"
         inkscape:export-xdpi="96.007187"
         inkscape:export-ydpi="96.007187" />
      <path
         style="fill:#5d5d5d;stroke-width:0.219483;opacity:0"
         d="m 391.30598,202.82827 c -0.81567,-0.71332 -0.81567,-0.71332 -0.75986,-13.11412 0.0307,-6.82045 0.0367,-13.14157 0.0134,-14.04693 -0.28869,-11.19813 -0.28251,-13.88795 0.0342,-14.88398 0.57339,-1.8033 0.40457,-32.81366 -0.18394,-33.78673 -0.84875,-1.40337 -1.83393,-1.08479 -3.72584,1.20482 -0.67449,0.81628 -1.36052,1.63229 -1.5245,1.81336 -0.40517,0.44739 -3.16491,3.84411 -6.60914,8.1346 -4.08219,5.0852 -7.076,8.7893 -7.61693,9.42406 -3.10706,3.64603 -5.71585,7.03353 -6.16959,8.01114 -0.16808,0.36215 -1.33249,1.7562 -2.58758,3.09788 -1.25509,1.34168 -2.67705,2.95028 -3.15991,3.57468 -0.48286,0.62438 -1.57559,1.99583 -2.42828,3.04765 -2.36371,2.91573 -3.06422,5.03817 -1.79626,5.44243 2.69131,0.85806 6.89981,0.64795 7.66413,-0.38264 1.57836,-2.12822 2.6966,-3.48571 4.02284,-4.88357 0.84501,-0.89064 1.83269,-1.9849 2.19483,-2.43169 0.36215,-0.4468 1.01704,-1.2227 1.45531,-1.72423 0.43827,-0.50153 1.16959,-1.40571 1.62515,-2.00929 0.45557,-0.60358 1.40596,-1.71865 2.11198,-2.47794 0.70602,-0.75928 1.45187,-1.64819 1.65745,-1.97535 0.36738,-0.58464 1.32164,-1.81293 1.91152,-2.46043 0.16497,-0.18108 0.95396,-1.11771 1.75332,-2.08141 2.90381,-3.50079 2.7974,-3.90038 2.81212,10.5603 0.0463,45.42863 0.30473,41.33106 -2.58102,40.91865 -1.79799,-0.25696 -5.41638,-1.28803 -7.07535,-2.01614 -0.51626,-0.22659 -1.06095,-0.41198 -1.2104,-0.41198 -0.14945,0 -0.61596,-0.18301 -1.03668,-0.40668 -0.42071,-0.22367 -1.16001,-0.53246 -1.64287,-0.6862 -0.48286,-0.15373 -1.02608,-0.39999 -1.20716,-0.54724 -0.18107,-0.14725 -1.06998,-0.63271 -1.97535,-1.0788 -0.90537,-0.44609 -2.18934,-1.14932 -2.85328,-1.56273 -0.66394,-0.41341 -1.50346,-0.91781 -1.86561,-1.12088 -0.36215,-0.20308 -1.34982,-0.92914 -2.19483,-1.61347 -0.84501,-0.68433 -1.98084,-1.55245 -2.52406,-1.92915 -1.60272,-1.11141 -5.91839,-5.47579 -7.8011,-7.88913 -2.38722,-3.06005 -3.81266,-5.02539 -3.983,-5.49161 -0.0785,-0.21485 -0.33241,-0.63755 -0.56426,-0.93934 -0.23185,-0.30179 -0.55878,-0.84501 -0.72652,-1.20716 -0.16774,-0.36214 -0.69311,-1.27106 -1.1675,-2.01982 -0.47439,-0.74875 -0.93218,-1.68704 -1.01733,-2.08509 -0.0851,-0.39804 -0.23567,-0.82477 -0.3345,-0.94828 -0.23785,-0.29724 -1.24306,-2.95172 -1.7435,-4.60407 -0.21936,-0.7243 -0.55635,-1.68411 -0.74886,-2.13291 -0.19252,-0.44881 -0.35003,-1.08384 -0.35003,-1.41117 0,-0.32734 -0.18784,-1.19473 -0.41743,-1.92753 -1.55757,-4.97147 -1.60301,-18.13994 -0.0788,-22.84174 0.19566,-0.60358 0.43031,-1.59125 0.52145,-2.19483 0.18274,-1.21032 1.10352,-4.10509 1.753,-5.51112 0.22916,-0.49609 0.41665,-1.023 0.41665,-1.17091 0,-0.23751 2.0616,-4.50093 3.03067,-6.26748 0.79136,-1.44259 2.37879,-3.88298 4.38707,-6.74432 1.70053,-2.42288 8.15298,-8.87609 10.28182,-10.28304 0.34501,-0.22801 0.93677,-0.63837 1.31503,-0.9119 0.37826,-0.27354 1.26717,-0.88102 1.97535,-1.34997 0.70819,-0.46894 1.53756,-1.0238 1.84305,-1.23301 0.3055,-0.20921 0.94749,-0.59201 1.42664,-0.85067 0.47917,-0.25865 1.01936,-0.558466 1.20043,-0.666248 0.70509,-0.419704 4.5509,-2.210862 5.48708,-2.55557 3.11368,-1.146478 5.95216,-2.041073 6.91083,-2.178063 0.60199,-0.08602 1.34285,-0.284815 1.64636,-0.441764 0.3035,-0.156949 1.14433,-0.352664 1.8685,-0.434922 0.72417,-0.08226 2.09303,-0.289973 3.04191,-0.461587 2.35166,-0.42532 10.74197,-0.427998 12.80118,-0.0041 0.82272,0.169368 2.23661,0.376225 3.14198,0.459682 0.90537,0.08346 1.85749,0.285727 2.11582,0.449487 0.25833,0.163761 0.99896,0.367957 1.64585,0.45377 0.64689,0.08581 2.21334,0.542547 3.48101,1.014963 1.26767,0.472418 2.73467,0.997958 3.26,1.167869 0.83048,0.268603 4.54269,2.053327 6.50728,3.128513 1.37022,0.7499 3.91698,2.38225 5.37207,3.44324 0.33111,0.24143 0.88751,0.63158 1.23645,0.867 1.57937,1.06558 5.65774,4.92831 8.26354,7.82662 1.53958,1.71239 2.22056,2.64989 5.32336,7.32866 1.1406,1.71992 4.01152,7.56112 4.58728,9.33332 0.17554,0.54032 0.667,1.96281 1.09214,3.16109 0.42514,1.19828 0.88693,2.92672 1.02621,3.84096 0.13928,0.91424 0.4531,2.30425 0.69736,3.0889 0.60577,1.94586 0.68945,15.96689 0.10414,17.44892 -0.1907,0.48286 -0.50529,1.86561 -0.6991,3.07277 -0.4007,2.49588 -1.01477,4.85863 -1.78371,6.8632 -0.29033,0.75686 -0.52787,1.50354 -0.52787,1.65929 0,0.41795 -2.1241,4.54158 -2.61168,5.07018 -0.23046,0.24984 -0.5759,0.83494 -0.76764,1.30022 -0.3288,0.79785 -2.24363,3.85505 -2.56322,4.09241 -0.0813,0.0604 -0.33302,0.41442 -0.55947,0.7868 -1.92691,3.16878 -7.19716,8.7492 -11.05665,11.70738 -0.30179,0.23131 -0.84501,0.65337 -1.20716,0.93792 -0.36215,0.28454 -1.10291,0.80594 -1.64613,1.15865 -0.54322,0.35271 -1.18521,0.80633 -1.42664,1.00803 -0.45501,0.38014 -2.67095,1.59206 -5.70656,3.12098 -3.33079,1.6776 -3.83385,1.91167 -4.11128,1.91301 -0.15311,6.7e-4 -0.57469,0.16028 -0.93684,0.35454 -0.72236,0.38745 -3.73755,1.24136 -6.14553,1.74046 -0.84501,0.17514 -2.03022,0.48313 -2.6338,0.68443 -0.60358,0.20129 -2.09644,0.43315 -3.31747,0.51526 -1.50902,0.10146 -2.38577,0.26535 -2.7375,0.51171 -0.85772,0.60077 -1.98499,0.46523 -2.91818,-0.35088 z"
         id="path2172"
         inkscape:export-filename="C:\Users\Alekh\Projects\GitHub\afernandezfada\notion-icons\icons\AK-white.png"
         inkscape:export-xdpi="96.007187"
         inkscape:export-ydpi="96.007187" />
      <path
         style="opacity:1;fill:#d51719;stroke-width:0.219483"
         d="m 422.18438,117.13359 c -8.51246,-0.18025 -22.5112,16.58737 -23.20935,17.55995 -4.04831,4.37727 -4.30225,6.70262 -4.26982,12.66486 2.32799,15.20728 22.85415,34.4838 30.00115,27.63702 0,0 13.91179,-42.09178 -2.52198,-57.86183 z"
         id="path2170"
         sodipodi:nodetypes="ccccc"
         inkscape:export-filename="C:\Users\Alekh\Projects\GitHub\afernandezfada\notion-icons\icons\AK-white.png"
         inkscape:export-xdpi="96.007187"
         inkscape:export-ydpi="96.007187" />
      <path
         style="opacity:1;fill:#020101;stroke-width:0.219483"
         d="m 392.01637,202.59301 c -0.9248,-0.62382 -1.04842,-10.39198 -0.73518,-58.09242 0.11148,-16.97561 0.10665,-17.24003 -0.32806,-17.94823 -1.14277,-1.86174 -2.86151,-1.25675 -5.15976,1.81621 -0.45141,0.60357 -1.17933,1.50775 -1.6176,2.00928 -0.43827,0.50153 -1.09316,1.2777 -1.45531,1.72481 -0.36214,0.44711 -0.85598,1.03853 -1.09741,1.31427 -0.24143,0.27573 -0.85314,1.07985 -1.35936,1.78692 -0.50621,0.70708 -1.29635,1.69538 -1.75586,2.19622 -0.45952,0.50084 -1.09875,1.2416 -1.42052,1.64612 -2.84928,3.58209 -4.04657,5.05959 -4.84645,5.98073 -0.51344,0.59127 -1.08168,1.30046 -1.26275,1.57597 -0.38188,0.58103 -2.95173,3.78535 -4.38967,5.47342 -1.05773,1.24173 -1.58812,1.97746 -2.70784,3.7562 -0.38984,0.61928 -1.36269,1.80449 -2.1619,2.6338 -1.99282,2.0679 -2.56811,2.73128 -5.34579,6.16436 -0.90011,1.11249 -1.63657,2.08071 -1.63657,2.15161 0,0.0709 -0.24691,0.49227 -0.5487,0.93639 -1.37592,2.02484 -0.78694,3.30595 1.79569,3.90583 4.18115,0.9712 5.76397,0.51862 7.88498,-2.25455 0.71142,-0.93016 2.08492,-2.53583 3.05222,-3.56815 0.9673,-1.03232 2.29322,-2.54362 2.94648,-3.35845 0.65326,-0.81483 1.25796,-1.48152 1.34378,-1.48152 0.0858,0 0.58118,-0.64198 1.1008,-1.42664 0.51963,-0.78465 1.01023,-1.42664 1.09024,-1.42664 0.08,0 0.97483,-1.04522 1.9885,-2.32272 6.17547,-7.78268 5.88641,-7.64951 5.9157,-2.72539 0.1097,18.44024 -0.0679,47.75979 -0.29099,48.02855 -0.35102,0.42295 -2.61543,0.23192 -4.15292,-0.35034 -0.64081,-0.24268 -2.20218,-0.76472 -3.4697,-1.16009 -1.26751,-0.39536 -2.0165,-0.6893 -2.98893,-1.12145 -0.7453,-0.33122 -1.43579,-0.77575 -2.17314,-1.12429 -0.81818,-0.38675 -1.66538,-0.70893 -2.49457,-1.07148 -0.30174,-0.13193 -0.60738,-0.25578 -0.90262,-0.40166 -0.41108,-0.20311 -0.80995,-0.4304 -1.20774,-0.65845 -0.36914,-0.21163 -0.7339,-0.43112 -1.09358,-0.65845 -0.22388,-0.1415 -0.44179,-0.29225 -0.66229,-0.43897 -0.2193,-0.14593 -0.43963,-0.29035 -0.65712,-0.43896 -1.05539,-0.72112 -2.11206,-1.44119 -3.14332,-2.19641 -0.72043,-0.52759 -1.45488,-1.04088 -2.12561,-1.63036 -2.38925,-2.09982 -4.57566,-4.4248 -6.73186,-6.7633 -0.44016,-0.47738 -0.84311,-0.98777 -1.26482,-1.48152 -0.14062,-0.16464 -0.29108,-0.32135 -0.42196,-0.49383 -0.33288,-0.4387 -0.61003,-0.91706 -0.92068,-1.37177 -0.75535,-1.10563 -1.57605,-2.16739 -2.29329,-3.29812 -0.79041,-1.24607 -1.99013,-3.34223 -2.21096,-3.83518 -0.13521,-0.30183 -0.4014,-0.6779 -0.59154,-0.83569 -0.19013,-0.1578 -0.3431,-0.80058 -0.49906,-1.20708 -0.24146,-0.62937 -0.44138,-1.274 -0.67561,-1.90609 -0.16765,-0.45243 -0.35441,-0.89762 -0.52224,-1.34998 -0.18927,-0.51014 -0.37174,-1.02286 -0.54656,-1.53813 -0.19099,-0.56295 -0.36024,-1.13308 -0.54871,-1.69688 -0.13496,-0.40374 -0.29468,-0.79935 -0.41679,-1.20716 -0.26244,-0.87643 -0.4817,-1.76603 -0.67752,-2.65971 -0.27863,-1.27164 -0.59335,-2.54409 -0.70678,-3.84095 -0.50268,-5.74734 -0.44847,-11.56712 0.12968,-17.30736 0.12289,-1.22017 0.43141,-2.41547 0.70662,-3.61053 0.15535,-0.67457 0.33026,-1.34522 0.53271,-2.00718 0.15863,-0.51866 0.35935,-1.02352 0.53371,-1.53711 0.18585,-0.54744 0.35669,-1.09995 0.54621,-1.64613 0.17937,-0.51694 0.36928,-1.03019 0.55917,-1.54337 0.14972,-0.40461 0.29293,-0.81191 0.4574,-1.21075 0.19757,-0.47911 0.41459,-0.95012 0.63544,-1.41896 0.20813,-0.44184 0.43459,-0.87482 0.64971,-1.31331 0.15261,-0.31106 0.29679,-0.62631 0.45472,-0.9347 0.14702,-0.28709 0.29479,-0.57422 0.45862,-0.85206 0.23381,-0.39652 0.51252,-0.76533 0.74728,-1.16129 0.34487,-0.58168 0.63625,-1.19363 0.97003,-1.78174 0.29364,-0.51739 0.58998,-1.03373 0.90819,-1.53638 0.2835,-0.44782 0.58114,-0.88696 0.89109,-1.3169 0.64707,-0.89757 1.28974,-1.80287 2.02042,-2.6338 2.70231,-3.07308 5.61996,-5.96818 8.70532,-8.65647 0.45068,-0.39268 0.95647,-0.71739 1.42664,-1.08652 0.41782,-0.32803 0.81048,-0.68827 1.23884,-1.00241 0.27153,-0.19912 0.55625,-0.37995 0.84205,-0.55799 0.34927,-0.21758 0.71268,-0.41164 1.06573,-0.62303 0.98014,-0.58686 1.96401,-1.16865 2.92182,-1.79129 0.20565,-0.13369 0.3949,-0.29255 0.60613,-0.41723 0.35596,-0.21011 0.73451,-0.37987 1.10917,-0.554476 0.41079,-0.191439 0.84021,-0.341842 1.24768,-0.540252 0.35816,-0.1744 0.69358,-0.392837 1.05014,-0.570489 0.49629,-0.247272 1.0047,-0.469882 1.5142,-0.688642 0.42579,-0.182817 0.85503,-0.358013 1.28874,-0.521159 0.43365,-0.163126 0.87328,-0.310069 1.31256,-0.457366 0.59725,-0.200264 1.19931,-0.385878 1.79869,-0.57967 0.48454,-0.156661 0.96612,-0.322676 1.45317,-0.471361 0.69147,-0.211091 1.38414,-0.420062 2.08509,-0.597156 0.90775,-0.229343 1.81273,-0.501069 2.74354,-0.602039 6.61883,-0.717978 13.35298,-0.708968 19.97298,-0.0018 0.98241,0.104944 1.94099,0.377203 2.89705,0.626361 0.70131,0.182768 1.38875,0.41547 2.07906,0.636178 0.35265,0.112751 0.70214,0.235191 1.05365,0.351456 0.55026,0.182004 1.10385,0.354027 1.65216,0.541844 0.51244,0.175533 1.02846,0.342828 1.5303,0.546702 1.97694,0.803133 3.90163,1.731222 5.82239,2.660739 0.36133,0.17486 0.71793,0.3595 1.07214,0.54836 0.44307,0.23624 0.88724,0.47149 1.3169,0.73133 0.86981,0.52602 1.76536,1.0264 2.54933,1.67344 5.74319,4.74008 10.94389,10.18337 15.57839,16.0121 0.37903,0.4767 0.68356,1.00936 0.98876,1.53638 0.79844,1.37876 1.43091,2.84801 2.19867,4.24408 0.14066,0.25578 0.30734,0.49707 0.4409,0.75663 0.21603,0.41981 0.39606,0.85735 0.58128,1.29163 0.18047,0.42313 0.34817,0.85162 0.51624,1.27983 0.22032,0.56133 0.42496,1.12874 0.64515,1.69013 0.18093,0.46129 0.38008,0.9154 0.5554,1.37884 0.15345,0.40563 0.30771,0.81163 0.43439,1.22641 0.22411,0.73379 0.4012,1.48148 0.57487,2.22882 0.23543,1.01313 0.40197,2.04135 0.63288,3.05552 0.18433,0.80958 0.50154,1.59304 0.60057,2.41741 0.63997,5.32733 0.56873,10.76935 -0.0707,16.09674 -0.10003,0.83338 -0.41645,1.62692 -0.58514,2.44916 -0.14608,0.71202 -0.22107,1.43747 -0.3693,2.14905 -0.16655,0.79951 -0.37498,1.58992 -0.58372,2.37947 -0.22759,0.86083 -0.45706,1.72194 -0.72889,2.56984 -0.16608,0.51805 -0.3648,1.02507 -0.55057,1.53638 -0.18951,0.5216 -0.37217,1.04588 -0.57541,1.56229 -0.13277,0.33736 -0.26155,0.67723 -0.42054,1.00306 -0.36087,0.73959 -0.79677,1.44024 -1.20716,2.15354 -0.39474,0.68611 -0.80795,1.36143 -1.20716,2.04495 -0.33187,0.56823 -0.65769,1.13997 -0.98767,1.7093 -0.32847,0.56673 -0.63346,1.14788 -0.98768,1.69888 -0.10694,0.16635 -0.2255,0.32501 -0.34282,0.48421 -0.37252,0.50548 -0.7441,1.01264 -1.14623,1.4949 -2.77204,3.32444 -5.52768,6.6984 -8.71692,9.62498 -1.36077,1.2487 -2.9211,2.26145 -4.41052,3.35351 -0.21675,0.15892 -0.44256,0.30529 -0.65845,0.46537 -0.29068,0.21553 -0.55628,0.46514 -0.85708,0.6663 -0.52501,0.3511 -1.09057,0.63788 -1.64612,0.93832 -2.19827,1.18882 -4.46316,2.25076 -6.6728,3.41832 -0.25364,0.13402 -0.49791,0.28593 -0.75575,0.41168 -0.43058,0.20999 -0.87182,0.39881 -1.3188,0.57117 -0.54068,0.20849 -1.09269,0.38723 -1.64613,0.55899 -0.76491,0.23739 -1.54398,0.42668 -2.31274,0.65128 -0.63304,0.18495 -1.25671,0.40224 -1.89363,0.57336 -0.71677,0.19257 -1.44487,0.34021 -2.16747,0.50961 -0.67278,0.15772 -1.34097,0.33674 -2.01865,0.47185 -0.88965,0.17737 -1.31934,0.35073 -2.68497,0.44424 -1.28865,0.0882 -2.70315,0.31397 -3.14333,0.50163 -0.76163,0.3247 -0.83592,0.31719 -1.53638,-0.15531 z m 30.54031,-31.31546 c 1.04627,-1.04627 0.13171,-2.71039 -2.3653,-5.87853 l -1.94033,-2.46184 -4.43813,-5.305 -1.91959,-2.27771 c 0,0 -1.4577,-1.96246 -2.96775,-3.67305 -3.11278,-3.52613 -3.09969,-4.4507 0.11449,-8.0844 0.49298,-0.55732 1.3635,-1.59438 1.93449,-2.30458 3.03588,-3.77598 8.06667,-9.80109 9.17454,-10.98786 4.43904,-4.75516 4.15475,-6.52462 -1.05607,-6.57316 -4.41035,-0.0411 -4.60357,-0.0925 -5.84658,1.34296 l -16.24072,19.54048 -2.30052,2.74354 2.30052,-2.74354 v 0 0 c 0,0 0.45056,-0.48037 0,0 -2.76271,2.9455 -2.01645,4.80572 4.91952,12.26307 1.02609,1.10322 2.74354,3.41694 2.74354,3.41694 l 1.76164,2.30106 2.30457,2.62288 c 5.55955,6.32744 5.05735,6.35218 11.3525,6.46222 1.76585,0.0309 2.08738,-0.0217 2.46918,-0.40348 z"
         id="path2168"
         sodipodi:nodetypes="ssssssssssssssssssssssssssssssaaaaaaaaaaaaaaassaaaaaaaaaaaaaaaaaaaaaaaaaaaaaaaaaaaaaaaaaaaaaaaaaaaaaaaaaaaaaaaaaaaaaaaaaaaaaaaaaaaaaaaaaasssssscccsssssscccccssccsss"
         inkscape:export-filename="C:\Users\Alekh\Projects\GitHub\afernandezfada\notion-icons\icons\AK-white.png"
         inkscape:export-xdpi="96.007187"
         inkscape:export-ydpi="96.007187" />
    </g>
  </g>
</svg>
